<svg width="23" height="29" viewBox="0 0 23 29" fill="none" xmlns="http://www.w3.org/2000/svg">
<path d="M19.2209 10.6047C19.2209 8.49526 18.383 6.47225 16.8914 4.98069C15.3998 3.48912 13.3768 2.65116 11.2674 2.65116C9.15805 2.65116 7.13505 3.48912 5.64348 4.98069C4.15191 6.47225 3.31395 8.49526 3.31395 10.6047V21.2093H19.2209V10.6047ZM21.8721 22.0935L22.4023 22.8C22.4762 22.8985 22.5212 23.0156 22.5322 23.1382C22.5433 23.2607 22.52 23.384 22.4649 23.4941C22.4099 23.6042 22.3252 23.6968 22.2205 23.7615C22.1158 23.8262 21.9952 23.8605 21.8721 23.8605H0.662791C0.539703 23.8605 0.419046 23.8262 0.314341 23.7615C0.209636 23.6968 0.12502 23.6042 0.0699729 23.4941C0.0149262 23.384 -0.00837556 23.2607 0.00267845 23.1382C0.0137325 23.0156 0.0587054 22.8985 0.132558 22.8L0.662791 22.0935V10.6047C0.662791 7.79212 1.78006 5.09479 3.76882 3.10603C5.75758 1.11727 8.45491 0 11.2674 0C14.08 0 16.7773 1.11727 18.7661 3.10603C20.7548 5.09479 21.8721 7.79212 21.8721 10.6047V22.0935ZM7.95349 25.186H14.5814C14.5814 26.065 14.2322 26.9079 13.6108 27.5294C12.9893 28.1509 12.1464 28.5 11.2674 28.5C10.3885 28.5 9.54561 28.1509 8.92412 27.5294C8.30264 26.9079 7.95349 26.065 7.95349 25.186Z" fill="black"/>
</svg>
