<svg width="26" height="26" viewBox="0 0 26 26" fill="none" xmlns="http://www.w3.org/2000/svg">
<path d="M23.8019 21.6233V13.4682C23.8019 12.811 23.6682 12.1608 23.409 11.5569C23.1498 10.9531 22.7704 10.4083 22.294 9.95564L14.57 2.6193C14.1198 2.1916 13.5225 1.95312 12.9016 1.95313C12.2806 1.95312 11.6833 2.1916 11.2331 2.6193L3.50797 9.95564C3.03154 10.4083 2.65216 10.9531 2.39292 11.5569C2.13368 12.1608 2 12.811 2 13.4682V21.6233C2 22.2658 2.25522 22.8819 2.70951 23.3362C3.16381 23.7905 3.77997 24.0457 4.42244 24.0457H21.3795C22.022 24.0457 22.6381 23.7905 23.0924 23.3362C23.5467 22.8819 23.8019 22.2658 23.8019 21.6233Z" stroke="#5BAA60" stroke-width="2.5" stroke-linecap="round" stroke-linejoin="round"/>
</svg>
