<svg width="27" height="24" viewBox="0 0 27 24" fill="none" xmlns="http://www.w3.org/2000/svg">
<path d="M26.3051 7.78789L24.9168 2.00978C24.6259 0.819778 23.5946 0 22.3914 0H4.02569C2.83569 0 1.79113 0.833 1.51346 2.00978L0.125129 7.78789C-0.192204 9.13656 0.098685 10.5117 0.944907 11.5959C1.05069 11.7413 1.19613 11.8471 1.31513 11.9793V21.1556C1.31513 22.61 2.50513 23.8 3.95957 23.8H22.4707C23.9251 23.8 25.1151 22.61 25.1151 21.1556V11.9793C25.2341 11.8603 25.3796 11.7413 25.4854 11.6091C26.3316 10.5249 26.6357 9.13656 26.3051 7.78789ZM22.3517 2.63122L23.74 8.40933C23.8722 8.96467 23.7532 9.52 23.4095 9.95633C23.2244 10.1943 22.8277 10.5778 22.1666 10.5778C21.36 10.5778 20.6592 9.92989 20.5667 9.07044L19.7998 2.64444L22.3517 2.63122ZM14.5374 2.64444H17.1289L17.8429 8.62089C17.909 9.13656 17.7504 9.65222 17.4066 10.0357C17.1157 10.3794 16.6926 10.5778 16.1505 10.5778C15.2646 10.5778 14.5374 9.79767 14.5374 8.84567V2.64444ZM8.57413 8.62089L9.30135 2.64444H11.8929V8.84567C11.8929 9.79767 11.1657 10.5778 10.1872 10.5778C9.73769 10.5778 9.3278 10.3794 9.01046 10.0357C8.84564 9.84173 8.72197 9.61631 8.64696 9.3731C8.57195 9.12989 8.54717 8.87397 8.57413 8.62089ZM2.69024 8.40933L4.02569 2.64444H6.63046L5.86357 9.07044C5.7578 9.92989 5.07024 10.5778 4.26369 10.5778C3.6158 10.5778 3.20591 10.1943 3.03402 9.95633C2.67702 9.53322 2.55802 8.96467 2.69024 8.40933ZM3.95957 21.1556V13.1826C4.06535 13.1958 4.15791 13.2222 4.26369 13.2222C5.41402 13.2222 6.45858 12.7462 7.22546 11.9661C8.0188 12.7594 9.07658 13.2222 10.2798 13.2222C11.4301 13.2222 12.4615 12.7462 13.2284 11.9926C14.0085 12.7462 15.0662 13.2222 16.2562 13.2222C17.3669 13.2222 18.4247 12.7594 19.218 11.9661C19.9849 12.7462 21.0295 13.2222 22.1798 13.2222C22.2856 13.2222 22.3781 13.1958 22.4839 13.1826V21.1556H3.95957Z" fill="#0D1821"/>
</svg>
