<svg width="28" height="22" viewBox="0 0 28 22" fill="none" xmlns="http://www.w3.org/2000/svg">
<path d="M1 6.7467V18.0838C1 18.8355 1.29861 19.5564 1.83014 20.088C2.36167 20.6195 3.08259 20.9181 3.83429 20.9181H23.6743C24.426 20.9181 25.1469 20.6195 25.6784 20.088C26.21 19.5564 26.5086 18.8355 26.5086 18.0838V6.7467M1 6.7467V3.91241C1 3.16071 1.29861 2.4398 1.83014 1.90827C2.36167 1.37674 3.08259 1.07813 3.83429 1.07812H23.6743C24.426 1.07813 25.1469 1.37674 25.6784 1.90827C26.21 2.4398 26.5086 3.16071 26.5086 3.91241V6.7467M1 6.7467H26.5086M6.66857 12.4153H13.7543" stroke="#0D1821" stroke-width="2" stroke-linecap="round" stroke-linejoin="round"/>
</svg>
