<svg width="20" height="25" viewBox="0 0 20 25" fill="none" xmlns="http://www.w3.org/2000/svg">
<path d="M0 12.1122C0 12.4334 0.12761 12.7415 0.354758 12.9686C0.581905 13.1958 0.889983 13.3234 1.21122 13.3234H10.4044L7.61856 16.0971C7.50503 16.2097 7.41493 16.3436 7.35343 16.4912C7.29194 16.6388 7.26028 16.7972 7.26028 16.957C7.26028 17.1169 7.29194 17.2753 7.35343 17.4229C7.41493 17.5705 7.50503 17.7044 7.61856 17.817C7.73116 17.9305 7.86512 18.0206 8.01272 18.0821C8.16032 18.1436 8.31863 18.1753 8.47852 18.1753C8.63842 18.1753 8.79673 18.1436 8.94433 18.0821C9.09193 18.0206 9.22589 17.9305 9.33849 17.817L14.1834 12.9721C14.2936 12.857 14.3801 12.7211 14.4377 12.5724C14.5589 12.2776 14.5589 11.9468 14.4377 11.6519C14.3801 11.5032 14.2936 11.3674 14.1834 11.2522L9.33849 6.40734C9.22556 6.29441 9.09149 6.20483 8.94393 6.14371C8.79638 6.08259 8.63823 6.05113 8.47852 6.05113C8.31881 6.05113 8.16067 6.08259 8.01311 6.14371C7.86556 6.20483 7.73149 6.29441 7.61856 6.40734C7.50563 6.52027 7.41604 6.65434 7.35493 6.8019C7.29381 6.94945 7.26235 7.1076 7.26235 7.26731C7.26235 7.42702 7.29381 7.58516 7.35493 7.73272C7.41604 7.88027 7.50563 8.01434 7.61856 8.12727L10.4044 10.901H1.21122C0.889983 10.901 0.581905 11.0286 0.354758 11.2557C0.12761 11.4829 0 11.7909 0 12.1122ZM15.7458 0H3.63365C2.66995 0 1.74571 0.38283 1.06427 1.06427C0.38283 1.74571 0 2.66995 0 3.63365V7.26731C0 7.58854 0.12761 7.89662 0.354758 8.12377C0.581905 8.35091 0.889983 8.47852 1.21122 8.47852C1.53245 8.47852 1.84053 8.35091 2.06768 8.12377C2.29483 7.89662 2.42244 7.58854 2.42244 7.26731V3.63365C2.42244 3.31242 2.55005 3.00434 2.77719 2.77719C3.00434 2.55005 3.31242 2.42244 3.63365 2.42244H15.7458C16.0671 2.42244 16.3751 2.55005 16.6023 2.77719C16.8294 3.00434 16.957 3.31242 16.957 3.63365V20.5907C16.957 20.9119 16.8294 21.22 16.6023 21.4472C16.3751 21.6743 16.0671 21.8019 15.7458 21.8019H3.63365C3.31242 21.8019 3.00434 21.6743 2.77719 21.4472C2.55005 21.22 2.42244 20.9119 2.42244 20.5907V16.957C2.42244 16.6358 2.29483 16.3277 2.06768 16.1006C1.84053 15.8734 1.53245 15.7458 1.21122 15.7458C0.889983 15.7458 0.581905 15.8734 0.354758 16.1006C0.12761 16.3277 0 16.6358 0 16.957V20.5907C0 21.5544 0.38283 22.4786 1.06427 23.1601C1.74571 23.8415 2.66995 24.2244 3.63365 24.2244H15.7458C16.7095 24.2244 17.6338 23.8415 18.3152 23.1601C18.9967 22.4786 19.3795 21.5544 19.3795 20.5907V3.63365C19.3795 2.66995 18.9967 1.74571 18.3152 1.06427C17.6338 0.38283 16.7095 0 15.7458 0Z" fill="#FF1818"/>
</svg>
