<svg width="25" height="25" viewBox="0 0 25 25" fill="none" xmlns="http://www.w3.org/2000/svg">
<path d="M12.1122 0C5.43352 0 0 5.43352 0 12.1122V17.1303C0 18.3705 1.08646 19.3795 2.42244 19.3795H3.63365C3.95489 19.3795 4.26297 19.2519 4.49011 19.0247C4.71726 18.7976 4.84487 18.4895 4.84487 18.1683V11.939C4.84487 11.6177 4.71726 11.3097 4.49011 11.0825C4.26297 10.8554 3.95489 10.7278 3.63365 10.7278H2.53387C3.2073 6.04034 7.24066 2.42244 12.1122 2.42244C16.9837 2.42244 21.0171 6.04034 21.6905 10.7278H20.5907C20.2695 10.7278 19.9614 10.8554 19.7342 11.0825C19.5071 11.3097 19.3795 11.6177 19.3795 11.939V19.3795C19.3795 20.7155 18.293 21.8019 16.957 21.8019H14.5346V20.5907H9.68974V24.2244H16.957C19.629 24.2244 21.8019 22.0514 21.8019 19.3795C23.1379 19.3795 24.2244 18.3705 24.2244 17.1303V12.1122C24.2244 5.43352 18.7908 0 12.1122 0Z" fill="#0D1821"/>
</svg>
